<svg id="Layer_3" enable-background="new 0 0 64 64" height="512" viewBox="0 0 64 64" width="512" xmlns="http://www.w3.org/2000/svg"><g><g><path d="m2 2h42v60h-42z" fill="#e8eff4"/></g><g><path d="m2 49.706c1.311.187 2.644.294 4 .294 17.673 0 32-16.342 32-36.5 0-4.02-.578-7.883-1.63-11.5h-34.37z" fill="#f6f9fb"/></g><g><path d="m6 38h34v20h-34z" fill="#8892a0"/></g><g><path d="m6 38v12c9.406 0 17.864-4.63 23.719-12z" fill="#b8bec6"/></g><g><path d="m58 46h-32c-2.209 0-4 1.791-4 4v4h4c0-2.209 1.791-4 4-4s4 1.791 4 4h14c0-2.209 1.791-4 4-4s4 1.791 4 4h6v-4c0-2.209-1.791-4-4-4z" fill="#96cc7f"/></g><g><path d="m26 46c-2.168 0-3.923 1.728-3.988 3.88 1.719.562 3.544.925 5.45 1.052.692-.573 1.569-.932 2.538-.932.861 0 1.654.278 2.307.741 4.122-.602 7.819-2.292 10.677-4.741z" fill="#abd699"/></g><g><path d="m26 46 4.516-4.014c2.888-2.568 6.619-3.986 10.484-3.986 3.865 0 7.596 1.418 10.484 3.986l4.516 4.014z" fill="#8bd2f5"/></g><g><path d="m42.984 46c2.103-1.801 3.737-4.009 4.772-6.473-2.096-.993-4.399-1.527-6.756-1.527-3.865 0-7.596 1.418-10.484 3.986l-4.516 4.014z" fill="#b9e4f9"/></g><g><circle cx="30" cy="54" fill="#666e78" r="4"/></g><g><circle cx="52" cy="54" fill="#666e78" r="4"/></g><g><path d="m35 12c0 8.746-4.371 16.914-11.649 21.766l-.351.234-.351-.234c-7.278-4.852-11.649-13.02-11.649-21.766l12-6z" fill="#8892a0"/></g><g><circle cx="23" cy="19" fill="#f7d881" r="6"/></g><g><path d="m17 19c0 1.04.265 2.018.731 2.871.412.081.835.129 1.269.129 3.866 0 7-3.358 7-7.5 0-.24-.013-.477-.034-.711-.875-.5-1.886-.789-2.966-.789-3.314 0-6 2.686-6 6z" fill="#fae8b3"/></g><g><path d="m41 38c-.335 0-.667.025-1 .046v7.954h2v-7.954c-.333-.021-.665-.046-1-.046z" fill="#96cc7f"/></g><g><g><path d="m23 21c-.256 0-.512-.098-.707-.293l-2-2 1.414-1.414 1.293 1.293 6.293-6.293 1.414 1.414-7 7c-.195.195-.451.293-.707.293z" fill="#fff"/></g></g><g><g><path d="m9 41h17v2h-17z" fill="#fff"/></g></g><g><g><path d="m9 45h10v2h-10z" fill="#fff"/></g></g><g><g><path d="m9 49h10v2h-10z" fill="#fff"/></g></g><g><g><path d="m9 53h10v2h-10z" fill="#fff"/></g></g></g></svg>