<svg height="512pt" viewBox="0 0 512 512" width="512pt" xmlns="http://www.w3.org/2000/svg"><path d="m512 256c0 141.386719-114.613281 256-256 256s-256-114.613281-256-256 114.613281-256 256-256 256 114.613281 256 256zm0 0" fill="#65b2ff"/><path d="m512 256c0 26.050781-3.890625 51.191406-11.128906 74.871094-32.011719 104.847656-129.542969 181.128906-244.871094 181.128906-104.558594 0-194.488281-62.699219-234.230469-152.550781-14-31.628907-21.769531-66.628907-21.769531-103.449219 0-46.21875 12.25-89.570312 33.679688-127 44.121093 77.070312 127.160156 129 222.320312 129s178.210938-51.929688 222.320312-129c21.429688 37.429688 33.679688 80.78125 33.679688 127zm0 0" fill="#0f9be8"/><path d="m402.390625 444.851562v21.179688c-33.261719 23.230469-72.300781 38.757812-114.519531 44-1.480469.1875-2.960938.359375-4.449219.507812h-.011719c-9.011718.972657-18.148437 1.460938-27.410156 1.460938-9.269531 0-18.421875-.488281-27.441406-1.460938-1.488282-.148437-2.980469-.320312-4.457032-.519531-42.222656-5.238281-81.261718-20.769531-114.523437-44.007812v-21.160157c0-55.902343 34.78125-105.890624 87.183594-125.339843l6.21875-2.300781 3.289062-1.222657 14.140625-5.238281 5.261719-1.949219h60.628906l5.257813 1.949219 14.140625 5.238281 3.289062 1.222657 6.222657 2.300781c52.390624 19.449219 87.179687 69.4375 87.179687 125.339843zm0 0" fill="#c7d9ff"/><path d="m275.890625 369.621094-7.609375 23.390625 2.488281 14.886719 14.652344 87.480468 2.449219 14.652344c-1.480469.1875-2.960938.359375-4.449219.507812h-.011719c-9.011718.972657-18.148437 1.460938-27.410156 1.460938-9.269531 0-18.421875-.488281-27.441406-1.460938-1.488282-.148437-2.980469-.320312-4.457032-.519531l2.449219-14.640625 14.648438-87.480468 2.492187-14.886719-7.613281-23.390625-29.808594-53.632813-.140625-.257812 12.691406-6.980469 1.589844 1.988281v.011719l35.570313 44.410156.019531-.019531 35.558594-44.390625v-.011719l1.589844-1.988281 12.691406 6.980469-.140625.257812zm0 0" fill="#474f6f"/><path d="m228.558594 510.539062c-1.488282-.148437-2.980469-.320312-4.457032-.519531-42.222656-5.238281-81.261718-20.769531-114.523437-44.007812v-21.160157c0-55.902343 34.78125-105.890624 87.183594-125.339843l6.21875-2.3125v.011719l23.570312 178.167968zm0 0" fill="#474f6f"/><path d="m402.390625 444.851562v21.179688c-33.261719 23.230469-72.300781 38.757812-114.519531 44-1.480469.1875-2.960938.359375-4.449219.507812l2-15.160156 23.566406-178.167968v-.011719l6.222657 2.3125c52.390624 19.449219 87.179687 69.4375 87.179687 125.339843zm0 0" fill="#323b5a"/><path d="m275.890625 369.621094-7.609375 23.390625 2.488281 14.886719 14.652344 87.480468 2.449219 14.652344c-1.480469.1875-2.960938.359375-4.449219.507812h-.011719c-9.011718.972657-18.148437 1.460938-27.410156 1.460938v-156.859375l35.558594-44.390625v-.011719l1.589844-1.988281 12.691406 6.980469-.140625.257812zm0 0" fill="#323b5a"/><path d="m153.332031 181.953125c-12.628906 0-22.863281 10.238281-22.863281 22.863281 0 23 18.644531 41.644532 41.644531 41.644532v-64.558594zm0 0" fill="#e3835a"/><path d="m358.667969 181.953125c12.625 0 22.863281 10.238281 22.863281 22.863281 0 23-18.644531 41.644532-41.644531 41.644532v-64.558594zm0 0" fill="#e3835a"/><path d="m307.839844 338.789062-6.5 26.949219-8.328125-10.847656c-3.933594-5.109375-10.863281-6.839844-16.722657-4.160156l-20.289062 9.269531-20.289062-9.269531c-5.859376-2.679688-12.789063-.949219-16.722657 4.160156l-8.328125 10.847656-6.5-26.949219c-3.449218-14.269531.191406-29.320312 9.761719-40.449218l8.648437-10.050782h66.859376l8.648437 10.050782c9.570313 11.128906 13.210937 26.179687 9.761719 40.449218zm0 0" fill="#e4ebf8"/><path d="m307.839844 338.789062-6.5 26.949219-8.328125-10.847656c-3.933594-5.109375-10.863281-6.839844-16.722657-4.160156l-20.289062 9.269531v-71.710938h33.429688l8.648437 10.050782c9.570313 11.128906 13.210937 26.179687 9.761719 40.449218zm0 0" fill="#fff"/><path d="m290.636719 264.351562v49.285157c0 19.125-15.503907 34.640625-34.640625 34.640625-19.125 0-34.636719-15.515625-34.636719-34.640625v-49.285157zm0 0" fill="#e3835a"/><path d="m290.636719 264.351562v49.285157c0 19.125-15.503907 34.640625-34.640625 34.640625v-83.925782zm0 0" fill="#ffa87a"/><path d="m345.371094 186.246094v33.695312c0 49.335938-40 89.363282-89.355469 89.371094-.007813 0-.007813 0-.019531 0-49.335938 0-89.359375-40.023438-89.359375-89.371094v-33.695312c0-5.074219.414062-10.054688 1.253906-14.894532 5.824219-34.8125 31.800781-62.792968 65.511719-71.597656 7.214844-1.871094 14.800781-2.867187 22.59375-2.867187h.019531c7.8125 0 15.390625.996093 22.601563 2.886719 33.710937 8.785156 59.660156 36.765624 65.5 71.578124.828124 4.839844 1.253906 9.820313 1.253906 14.894532zm0 0" fill="#ffa87a"/><path d="m345.371094 186.246094v33.695312c0 49.335938-40 89.363282-89.355469 89.371094v-212.429688c7.8125 0 15.390625 1 22.601563 2.886719 33.710937 8.785157 59.660156 36.765625 65.5 71.582031.828124 4.839844 1.253906 9.820313 1.253906 14.894532zm0 0" fill="#ffc0a4"/><path d="m238.96875 208.738281c0 6.074219-4.925781 11-11.003906 11-6.074219 0-11-4.925781-11-11 0-6.078125 4.925781-11.003906 11-11.003906 6.078125 0 11.003906 4.925781 11.003906 11.003906zm0 0" fill="#323b5a"/><path d="m295.035156 208.738281c0 6.074219-4.925781 11-11 11-6.078125 0-11.003906-4.925781-11.003906-11 0-6.078125 4.925781-11.003906 11.003906-11.003906 6.074219 0 11 4.925781 11 11.003906zm0 0" fill="#323b5a"/><path d="m282.316406 253.53125c7.777344 0 11.917969 9.332031 6.570313 14.976562-3.351563 3.539063-7.269531 6.535157-11.601563 8.84375-6.34375 3.398438-13.585937 5.316407-21.285156 5.316407-7.695312 0-14.941406-1.917969-21.285156-5.316407-4.332032-2.308593-8.25-5.304687-11.601563-8.84375-5.347656-5.644531-1.207031-14.976562 6.570313-14.976562zm0 0" fill="#323b5a"/><path d="m364.539062 177.992188c0 5.21875-3.921874 9.621093-9.101562 10.230468-4.496094.53125-9.070312.796875-13.695312.796875-33.90625 0-64.445313-14.480469-85.726563-37.632812-21.296875 23.152343-51.828125 37.632812-85.734375 37.632812-4.570312 0-9.085938-.257812-13.523438-.777343-2.652343-.300782-4.964843-1.589844-6.632812-3.453126-1.660156-1.871093-2.664062-4.316406-2.664062-6.992187 0-40.429687 21.824218-78.175781 57.652343-96.902344 7.25-3.78125 14.96875-6.789062 23.046875-8.902343 8.882813-2.300782 18.234375-3.53125 27.839844-3.53125h.015625c9.625 0 18.96875 1.230468 27.839844 3.558593 4.617187 1.203125 9.113281 2.703125 13.472656 4.460938 20.511719 8.304687 37.316406 22.621093 48.988281 40.394531 11.671875 17.753906 18.222656 38.988281 18.222656 61.117188zm0 0" fill="#a63914"/><path d="m364.539062 177.992188c0 5.21875-3.921874 9.621093-9.101562 10.230468-4.496094.53125-9.070312.796875-13.695312.796875-33.90625 0-64.445313-14.480469-85.726563-37.632812v-82.925781c9.625 0 18.96875 1.230468 27.839844 3.558593 4.617187 1.203125 9.113281 2.703125 13.472656 4.460938 20.511719 8.304687 37.316406 22.621093 48.988281 40.394531 11.671875 17.753906 18.222656 38.988281 18.222656 61.117188zm0 0" fill="#eb7722"/><path d="m256 198.984375v33.261719" fill="none" stroke="#e3835a" stroke-linecap="round" stroke-miterlimit="10" stroke-width="13.2442"/><path d="m277.285156 277.351562c-6.34375 3.398438-13.585937 5.316407-21.285156 5.316407-7.695312 0-14.941406-1.917969-21.285156-5.316407 5.292968-5.734374 12.871094-9.328124 21.285156-9.328124s15.988281 3.59375 21.285156 9.328124zm0 0" fill="#e32644"/><path d="m361.34375 211.742188c0 29.441406-23.867188 53.308593-53.308594 53.308593h-7.839844" fill="none" stroke="#494854" stroke-linecap="round" stroke-miterlimit="10" stroke-width="13.2442"/><path d="m150.65625 211.742188v-35.121094c0-39.238282 21.183594-75.875 55.960938-94.046875 7.03125-3.675781 14.523437-6.59375 22.363281-8.640625 8.628906-2.234375 17.695312-3.433594 27.019531-3.433594 9.347656 0 18.410156 1.199219 27.039062 3.453125 4.476563 1.167969 8.839844 2.621094 13.070313 4.332031 39.8125 16.132813 65.234375 55.5625 65.234375 98.519532v34.9375" fill="none" stroke="#323b5a" stroke-linecap="round" stroke-miterlimit="10" stroke-width="20.3077"/><path d="m493.179688 279.78125v17.808594c0 20.308594-16.46875 36.78125-36.789063 36.78125h-14.582031c-2.878906 0-5.628906.910156-7.929688 2.527344-1.277344.890624-2.417968 2-3.367187 3.28125-5.792969 7.800781-15.070313 12.859374-25.53125 12.859374-2.832031 0-5.570313-.367187-8.179688-1.058593-1.730469-.460938-2.039062-2.75-.519531-3.691407 4.757812-2.949218 8.667969-7.117187 11.320312-12.078124.097657-.191407.148438-.390626.148438-.582032 0-.660156-.539062-1.257812-1.269531-1.257812-20.308594 0-36.78125-16.472656-36.78125-36.78125v-17.808594c0-20.320312 16.472656-36.792969 36.78125-36.792969h49.910156c20.320313 0 36.789063 16.472657 36.789063 36.792969zm0 0" fill="#fff"/><path d="m493.179688 279.78125v17.808594c0 20.308594-16.46875 36.78125-36.789063 36.78125h-14.582031c-2.878906 0-5.628906.910156-7.929688 2.527344v-93.910157h22.511719c20.320313 0 36.789063 16.472657 36.789063 36.792969zm0 0" fill="#e4ebf8"/><g fill="#474f6f"><path d="m408.449219 289.207031c0 4.304688-3.488281 7.792969-7.792969 7.792969-4.300781 0-7.789062-3.488281-7.789062-7.792969 0-4.300781 3.488281-7.789062 7.789062-7.789062 4.304688 0 7.792969 3.488281 7.792969 7.789062zm0 0"/><path d="m440.082031 289.207031c0 4.304688-3.488281 7.792969-7.792969 7.792969-4.300781 0-7.789062-3.488281-7.789062-7.792969 0-4.300781 3.488281-7.789062 7.789062-7.789062 4.304688 0 7.792969 3.488281 7.792969 7.789062zm0 0"/><path d="m471.714844 289.207031c0 4.304688-3.488282 7.789063-7.789063 7.789063-4.304687 0-7.792969-3.484375-7.792969-7.789063 0-4.300781 3.488282-7.789062 7.792969-7.789062 4.300781 0 7.789063 3.488281 7.789063 7.789062zm0 0"/></g></svg>