<svg height="512pt" viewBox="0 0 512 512" width="512pt" xmlns="http://www.w3.org/2000/svg"><path d="m512 256c0 68.378906-26.628906 132.671875-74.980469 181.019531-48.347656 48.351563-112.640625 74.980469-181.019531 74.980469s-132.671875-26.628906-181.019531-74.980469c-48.351563-48.347656-74.980469-112.640625-74.980469-181.019531s26.628906-132.671875 74.980469-181.019531c48.347656-48.351563 112.640625-74.980469 181.019531-74.980469s132.671875 26.628906 181.019531 74.980469c48.351563 48.347656 74.980469 112.640625 74.980469 181.019531zm0 0" fill="#c3c7f5"/><path d="m512 256c0 68.378906-26.628906 132.671875-74.980469 181.019531-48.347656 48.351563-112.640625 74.980469-181.019531 74.980469v-512c68.378906 0 132.671875 26.628906 181.019531 74.980469 48.351563 48.347656 74.980469 112.640625 74.980469 181.019531zm0 0" fill="#a6adf1"/><path d="m459 256c0 111.929688-91.070312 203-203 203s-203-91.070312-203-203 91.070312-203 203-203 203 91.070312 203 203zm0 0" fill="#0087ff"/><path d="m459 256c0 111.929688-91.070312 203-203 203v-406c111.929688 0 203 91.070312 203 203zm0 0" fill="#4b5be6"/><path d="m164.226562 178.089844h69.695313v155.816406h-69.695313zm0 0" fill="#fff"/><path d="m278.078125 178.089844h69.695313v155.816406h-69.695313zm0 0" fill="#d9dcf4"/></svg>