<?xml version="1.0" encoding="iso-8859-1"?>
<!-- Generator: Adobe Illustrator 19.0.0, SVG Export Plug-In . SVG Version: 6.00 Build 0)  -->
<svg version="1.1" id="Capa_1" xmlns="http://www.w3.org/2000/svg" xmlns:xlink="http://www.w3.org/1999/xlink" x="0px" y="0px"
	 viewBox="0 0 480 480" style="enable-background:new 0 0 480 480;" xml:space="preserve">
<path style="fill:#4CAF50;" d="M432.157,219.456L431.997,80c0-6.72-4.224-12.736-10.528-15.04l-176-64
	c-3.52-1.28-7.392-1.28-10.944,0l-176,64C52.189,67.264,47.997,73.28,47.997,80l-0.16,139.456
	c-1.056,114.208-1.856,196.704,187.104,259.712c1.632,0.544,3.36,0.832,5.056,0.832c1.696,0,3.424-0.288,5.056-0.8
	C433.981,416.192,433.245,333.696,432.157,219.456z"/>
<g>
	<circle style="fill:#FAFAFA;" cx="239.997" cy="160" r="64"/>
	<path style="fill:#FAFAFA;" d="M255.997,256h-32c-44.096,0-80,35.872-80,80c0,8.832,7.168,16,16,16h160c8.832,0,16-7.168,16-16
		C335.997,291.872,300.125,256,255.997,256z"/>
</g>
<g>
</g>
<g>
</g>
<g>
</g>
<g>
</g>
<g>
</g>
<g>
</g>
<g>
</g>
<g>
</g>
<g>
</g>
<g>
</g>
<g>
</g>
<g>
</g>
<g>
</g>
<g>
</g>
<g>
</g>
</svg>
